<svg width="37" height="37" viewBox="0 0 37 37" fill="none" xmlns="http://www.w3.org/2000/svg">
<circle cx="18.5" cy="18.9453" r="17.5" fill="#4C496D" stroke="#4C496D"/>
<path d="M15.7002 12.2793H21.3002C23.4335 12.2793 25.1668 14.0126 25.1668 16.146V21.746C25.1668 22.7715 24.7594 23.755 24.0343 24.4801C23.3092 25.2052 22.3257 25.6126 21.3002 25.6126H15.7002C13.5668 25.6126 11.8335 23.8793 11.8335 21.746V16.146C11.8335 15.1205 12.2409 14.137 12.966 13.4118C13.6912 12.6867 14.6747 12.2793 15.7002 12.2793ZM15.5668 13.6126C14.9303 13.6126 14.3199 13.8655 13.8698 14.3156C13.4197 14.7657 13.1668 15.3761 13.1668 16.0126V21.8793C13.1668 23.206 14.2402 24.2793 15.5668 24.2793H21.4335C22.07 24.2793 22.6805 24.0264 23.1306 23.5764C23.5806 23.1263 23.8335 22.5158 23.8335 21.8793V16.0126C23.8335 14.686 22.7602 13.6126 21.4335 13.6126H15.5668ZM22.0002 14.6126C22.2212 14.6126 22.4331 14.7004 22.5894 14.8567C22.7457 15.013 22.8335 15.2249 22.8335 15.446C22.8335 15.667 22.7457 15.8789 22.5894 16.0352C22.4331 16.1915 22.2212 16.2793 22.0002 16.2793C21.7791 16.2793 21.5672 16.1915 21.4109 16.0352C21.2546 15.8789 21.1668 15.667 21.1668 15.446C21.1668 15.2249 21.2546 15.013 21.4109 14.8567C21.5672 14.7004 21.7791 14.6126 22.0002 14.6126ZM18.5002 15.6126C19.3842 15.6126 20.2321 15.9638 20.8572 16.5889C21.4823 17.2141 21.8335 18.0619 21.8335 18.946C21.8335 19.83 21.4823 20.6779 20.8572 21.303C20.2321 21.9281 19.3842 22.2793 18.5002 22.2793C17.6161 22.2793 16.7683 21.9281 16.1431 21.303C15.518 20.6779 15.1668 19.83 15.1668 18.946C15.1668 18.0619 15.518 17.2141 16.1431 16.5889C16.7683 15.9638 17.6161 15.6126 18.5002 15.6126ZM18.5002 16.946C17.9697 16.946 17.461 17.1567 17.0859 17.5317C16.7109 17.9068 16.5002 18.4155 16.5002 18.946C16.5002 19.4764 16.7109 19.9851 17.0859 20.3602C17.461 20.7352 17.9697 20.946 18.5002 20.946C19.0306 20.946 19.5393 20.7352 19.9144 20.3602C20.2894 19.9851 20.5002 19.4764 20.5002 18.946C20.5002 18.4155 20.2894 17.9068 19.9144 17.5317C19.5393 17.1567 19.0306 16.946 18.5002 16.946Z" fill="#FAFAFF"/>
</svg>
