<svg width="37" height="37" viewBox="0 0 37 37" fill="none" xmlns="http://www.w3.org/2000/svg">
<circle cx="18.5" cy="18.5" r="17.5" fill="#4C496D" stroke="#4C496D"/>
<path fill-rule="evenodd" clip-rule="evenodd" d="M24.5908 11.1026C24.7797 11.0118 24.9864 10.9804 25.1895 11.0119C25.3926 11.0433 25.5846 11.1364 25.7456 11.2814C25.9065 11.4265 26.0305 11.6182 26.1046 11.8365C26.1787 12.0549 26.2002 12.292 26.167 12.5231L24.4333 24.5415C24.2651 25.7008 23.1521 26.3656 22.2218 25.7881C21.4437 25.305 20.2879 24.5607 19.2483 23.7841C18.7284 23.3953 17.1362 22.1504 17.3319 21.2645C17.5 20.5071 20.1755 17.6609 21.7043 15.9687C22.3044 15.3038 22.0307 14.9203 21.3221 15.5319C19.5617 17.0502 16.7371 19.3592 15.803 20.0092C14.979 20.5823 14.5494 20.6801 14.0357 20.5823C13.0985 20.404 12.2294 20.128 11.52 19.7916C10.5614 19.3373 10.6081 17.8312 11.5192 17.3927L24.5908 11.1026Z" fill="#FAFAFF"/>
</svg>
