<svg width="37" height="37" viewBox="0 0 37 37" fill="none" xmlns="http://www.w3.org/2000/svg">
<circle cx="18.5" cy="18.9453" r="17.5" fill="#4C496D" stroke="#4C496D"/>
<path d="M25.205 24.236C25.3928 24.4238 25.4983 24.6784 25.4983 24.944C25.4983 25.2096 25.3928 25.4643 25.205 25.652C25.0172 25.8398 24.7625 25.9453 24.497 25.9453C24.2314 25.9453 23.9767 25.8398 23.7889 25.652L18.5 20.3618L13.2094 25.6504C13.0216 25.8382 12.7669 25.9436 12.5014 25.9436C12.2358 25.9436 11.9811 25.8382 11.7933 25.6504C11.6055 25.4626 11.5 25.2079 11.5 24.9423C11.5 24.6768 11.6055 24.4221 11.7933 24.2343L17.0839 18.9457L11.795 13.6555C11.6072 13.4677 11.5017 13.213 11.5017 12.9475C11.5017 12.6819 11.6072 12.4272 11.795 12.2394C11.9828 12.0516 12.2375 11.9461 12.503 11.9461C12.7686 11.9461 13.0233 12.0516 13.2111 12.2394L18.5 17.5297L23.7906 12.2386C23.9784 12.0508 24.2331 11.9453 24.4986 11.9453C24.7642 11.9453 25.0189 12.0508 25.2067 12.2386C25.3945 12.4264 25.5 12.6811 25.5 12.9466C25.5 13.2122 25.3945 13.4669 25.2067 13.6547L19.9161 18.9457L25.205 24.236Z" fill="#FAFAFF"/>
</svg>
